<?xml version="1.0" encoding="iso-8859-1"?>
<!-- Generator: Adobe Illustrator 16.0.0, SVG Export Plug-In . SVG Version: 6.00 Build 0)  -->
<!DOCTYPE svg PUBLIC "-//W3C//DTD SVG 1.1//EN" "http://www.w3.org/Graphics/SVG/1.1/DTD/svg11.dtd">
<svg version="1.1" id="Capa_1" xmlns="http://www.w3.org/2000/svg" xmlns:xlink="http://www.w3.org/1999/xlink" x="0px" y="0px"
	 width="291.643px" height="291.642px" viewBox="0 0 291.643 291.642" style="enable-background:new 0 0 291.643 291.642;"
	 xml:space="preserve">
<g>
	<g>
		<path d="M19.403,198.312h59.608l-12.873,74.906c-1.473,8.575,4.28,16.715,12.852,18.19c0.901,0.161,1.799,0.233,2.685,0.233
			c7.529,0,14.188-5.416,15.503-13.08l13.792-80.25h69.105l13.8,80.25c1.314,7.664,7.974,13.08,15.503,13.08
			c0.886,0,1.781-0.072,2.688-0.233c8.569-1.476,14.322-9.615,12.847-18.19l-12.873-74.906h60.19
			c9.668,0,17.502-7.835,17.502-17.492V17.497C289.731,7.832,281.902,0,272.229,0H19.403C9.741,0,1.911,7.832,1.911,17.497V180.82
			C1.911,190.477,9.735,198.312,19.403,198.312z M32.664,32.669h223.979v129.484H32.664V32.669z"/>
		<path d="M200.647,63.018c-8.357,0-15.151,6.793-15.151,15.146c0,1.914,0.394,3.726,1.046,5.411l-27.49,13.347l-46.587-8.287
			c2.079-2.975,3.309-6.574,3.309-10.471c0-10.133-8.244-18.374-18.372-18.374s-18.372,8.246-18.372,18.374
			c0,7.115,4.108,13.233,10.048,16.283l-11.625,17.852c-0.057,0-0.116-0.016-0.168-0.016c-5.468,0-9.901,4.432-9.901,9.9
			c0,5.463,4.433,9.9,9.901,9.9c5.465,0,9.898-4.433,9.898-9.9c0-1.483-0.35-2.879-0.942-4.143l13.665-20.974l46.533,8.277
			c-1.093,2.087-1.771,4.427-1.771,6.944c0,8.353,6.788,15.151,15.146,15.151c8.348,0,15.142-6.794,15.142-15.151
			c0-3.694-1.388-7.034-3.594-9.665l22.551-10.949c2.035,1.018,4.292,1.645,6.721,1.645c8.348,0,15.136-6.794,15.136-15.149
			C215.788,69.812,208.989,63.018,200.647,63.018z M97.406,86.037c-4.337,0-7.868-3.537-7.868-7.874
			c0-4.344,3.531-7.876,7.868-7.876s7.873,3.537,7.873,7.876C105.279,82.5,101.743,86.037,97.406,86.037z M159.812,116.927
			c-2.558,0-4.64-2.082-4.64-4.645c0-2.561,2.082-4.645,4.64-4.645c2.563,0,4.65,2.084,4.65,4.645
			C164.463,114.846,162.376,116.927,159.812,116.927z M200.647,82.809c-2.568,0-4.655-2.084-4.655-4.65
			c0-2.563,2.087-4.647,4.655-4.647c2.553,0,4.64,2.084,4.64,4.647C205.287,80.724,203.206,82.809,200.647,82.809z"/>
	</g>
</g>
<g>
</g>
<g>
</g>
<g>
</g>
<g>
</g>
<g>
</g>
<g>
</g>
<g>
</g>
<g>
</g>
<g>
</g>
<g>
</g>
<g>
</g>
<g>
</g>
<g>
</g>
<g>
</g>
<g>
</g>
</svg>
