<?xml version="1.0" standalone="no"?>
<!DOCTYPE svg PUBLIC "-//W3C//DTD SVG 20010904//EN"
 "http://www.w3.org/TR/2001/REC-SVG-20010904/DTD/svg10.dtd">
<svg version="1.0" xmlns="http://www.w3.org/2000/svg"
 width="1210.000000pt" height="1280.000000pt" viewBox="0 0 1210.000000 1280.000000"
 preserveAspectRatio="xMidYMid meet">
<metadata>
Created by potrace 1.15, written by Peter Selinger 2001-2017
</metadata>
<g transform="translate(0.000000,1280.000000) scale(0.100000,-0.100000)"
fill="#000000" stroke="none">
<path d="M7983 12785 c-212 -38 -373 -133 -512 -301 -89 -107 -158 -219 -200
-326 -33 -82 -71 -226 -71 -270 0 -16 -1 -28 -3 -28 -1 0 -18 5 -37 10 -120
35 -416 52 -527 31 -26 -5 -77 -15 -113 -21 -160 -30 -376 -119 -520 -214
l-65 -44 -250 29 c-137 16 -491 56 -785 89 -903 101 -2650 297 -3123 350 -247
27 -457 50 -466 50 -14 0 -24 -43 -64 -292 -519 -3190 -851 -5806 -1152 -9073
-33 -355 -95 -1109 -92 -1112 3 -3 404 -43 433 -43 7 0 8 -26 3 -77 -4 -43
-10 -117 -13 -165 l-6 -87 32 -5 c18 -3 101 -8 183 -11 436 -17 1998 -112
2550 -155 72 -5 283 -21 470 -35 2281 -171 3950 -365 5895 -685 135 -22 288
-47 340 -56 388 -64 1331 -235 1725 -313 82 -17 151 -28 153 -27 2 2 -6 132
-17 287 -70 966 -118 1913 -151 2984 -14 435 -14 1557 -1 1960 42 1252 139
2552 297 3975 64 574 174 1457 200 1608 l6 32 -46 0 -47 0 6 44 c7 45 7 45
-26 50 -32 6 -823 94 -2104 236 -302 34 -555 63 -561 65 -7 2 -5 27 9 77 27
98 29 347 4 456 -88 383 -343 716 -683 889 -227 116 -458 157 -671 118z"/>
</g>
</svg>
