<svg id="logosandtypes_com" xmlns="http://www.w3.org/2000/svg" viewBox="0 0 150 150.2"><path d="M0 .2h150v150H0V.2z" fill="none"/><g><path d="M80.2 12.3c-30.4 0-55 24.6-55 55 0 35.6 25.9 64.9 61.4 68.4V91.4c19.9 1.1 37.6-15 37.6-35.1 0-24.2-19.7-43.9-44-44zM87 67v6.4c-5.2-.4-9.2-4.7-9.2-9.8 0-4.4 3.5-7.9 7.9-7.9 3.5 0 6.3 2.8 6.3 6.3 0 2.7-2.2 5-5 5z" fill="#83c1be"/><radialGradient id="a" cx="148.6539" cy="44.3546" r="22.922" gradientTransform="matrix(1 0 0 -1 -56.9 110.49)" gradientUnits="userSpaceOnUse"><stop offset="0" stop-color="#feb064"/><stop offset=".5" stop-color="#f88865"/><stop offset="1" stop-color="#f14a42"/></radialGradient><path d="M109.7 53.3c-3.8-7.7-11.6-12.5-20.2-12.5-10 0-18 8.1-18 18 0 8.2 7.3 14.7 15.5 14.4-4.8-.6-9.2-4.7-9.2-9.8 0-4.3 3.5-7.9 7.9-7.9 3.5 0 6.1 2.8 6.1 6.3 0 2.8-2 4.8-5.3 4.8v24.7c14.5-1.5 25.5-13.5 25.5-28 0-3.4-.7-6.8-2.3-10z" fill="url(#a)"/><radialGradient id="b" cx="143.917" cy="37.1732" r=".043" gradientTransform="matrix(1 0 0 -1 -56.9 110.49)" gradientUnits="userSpaceOnUse"><stop offset="0" stop-color="#feb064"/><stop offset=".5" stop-color="#f88865"/><stop offset="1" stop-color="#f14a42"/></radialGradient><path d="M87 73.4s0-.1 0 0c-.2-.1.2-.1 0 0 .2-.1-.2-.1 0 0z" fill="url(#b)"/></g></svg>